<mxfile host="app.diagrams.net" modified="2024-03-14T01:02:13.865Z" agent="Mozilla/5.0 (Windows NT 10.0; Win64; x64) AppleWebKit/537.36 (KHTML, like Gecko) Chrome/122.0.0.0 Safari/537.36" etag="Z05vFAeeWt5GA9c8kFfc" version="24.0.6" type="github">
  <diagram id="yPxyJZ8AM_hMuL3Unpa9" name="gitflow">
    <mxGraphModel dx="1434" dy="818" grid="1" gridSize="10" guides="1" tooltips="1" connect="1" arrows="1" fold="1" page="1" pageScale="1" pageWidth="850" pageHeight="1100" math="0" shadow="0">
      <root>
        <mxCell id="0" />
        <mxCell id="1" parent="0" />
        <mxCell id="BTvp2O8rXc9mUWwI-0S5-248" style="edgeStyle=orthogonalEdgeStyle;rounded=0;orthogonalLoop=1;jettySize=auto;html=1;" edge="1" parent="1" source="BTvp2O8rXc9mUWwI-0S5-177" target="BTvp2O8rXc9mUWwI-0S5-244">
          <mxGeometry relative="1" as="geometry">
            <Array as="points">
              <mxPoint x="400" y="271" />
            </Array>
          </mxGeometry>
        </mxCell>
        <mxCell id="BTvp2O8rXc9mUWwI-0S5-177" value="" style="image;aspect=fixed;perimeter=ellipsePerimeter;html=1;align=center;shadow=0;dashed=0;spacingTop=3;image=img/lib/active_directory/web_server.svg;" vertex="1" parent="1">
          <mxGeometry x="390" y="399" width="55" height="68.75" as="geometry" />
        </mxCell>
        <mxCell id="BTvp2O8rXc9mUWwI-0S5-228" style="edgeStyle=orthogonalEdgeStyle;rounded=0;orthogonalLoop=1;jettySize=auto;html=1;exitX=0.5;exitY=1;exitDx=0;exitDy=0;entryX=0.5;entryY=0;entryDx=0;entryDy=0;" edge="1" parent="1" source="BTvp2O8rXc9mUWwI-0S5-179" target="BTvp2O8rXc9mUWwI-0S5-227">
          <mxGeometry relative="1" as="geometry" />
        </mxCell>
        <mxCell id="BTvp2O8rXc9mUWwI-0S5-179" value="go 웹서버" style="rounded=0;whiteSpace=wrap;html=1;" vertex="1" parent="1">
          <mxGeometry x="387" y="468.75" width="60" height="20" as="geometry" />
        </mxCell>
        <mxCell id="BTvp2O8rXc9mUWwI-0S5-182" style="edgeStyle=orthogonalEdgeStyle;rounded=0;orthogonalLoop=1;jettySize=auto;html=1;entryX=0;entryY=0.5;entryDx=0;entryDy=0;" edge="1" parent="1" source="BTvp2O8rXc9mUWwI-0S5-180" target="BTvp2O8rXc9mUWwI-0S5-177">
          <mxGeometry relative="1" as="geometry" />
        </mxCell>
        <mxCell id="BTvp2O8rXc9mUWwI-0S5-180" value="" style="outlineConnect=0;dashed=0;verticalLabelPosition=bottom;verticalAlign=top;align=center;html=1;shape=mxgraph.aws3.classic_load_balancer;fillColor=#F58534;gradientColor=none;" vertex="1" parent="1">
          <mxGeometry x="290" y="396.75" width="69" height="72" as="geometry" />
        </mxCell>
        <mxCell id="BTvp2O8rXc9mUWwI-0S5-181" value="로드 밸런서" style="rounded=0;whiteSpace=wrap;html=1;" vertex="1" parent="1">
          <mxGeometry x="282.25" y="480" width="84.5" height="20" as="geometry" />
        </mxCell>
        <mxCell id="BTvp2O8rXc9mUWwI-0S5-183" value="" style="aspect=fixed;sketch=0;html=1;dashed=0;whitespace=wrap;fillColor=#2875E2;strokeColor=#ffffff;points=[[0.005,0.63,0],[0.1,0.2,0],[0.9,0.2,0],[0.5,0,0],[0.995,0.63,0],[0.72,0.99,0],[0.5,1,0],[0.28,0.99,0]];shape=mxgraph.kubernetes.icon2;prIcon=user" vertex="1" parent="1">
          <mxGeometry x="170" y="474.75" width="50" height="48" as="geometry" />
        </mxCell>
        <mxCell id="BTvp2O8rXc9mUWwI-0S5-188" style="edgeStyle=orthogonalEdgeStyle;rounded=0;orthogonalLoop=1;jettySize=auto;html=1;exitX=0.995;exitY=0.63;exitDx=0;exitDy=0;exitPerimeter=0;" edge="1" parent="1" source="BTvp2O8rXc9mUWwI-0S5-184">
          <mxGeometry relative="1" as="geometry">
            <mxPoint x="290" y="430" as="targetPoint" />
          </mxGeometry>
        </mxCell>
        <mxCell id="BTvp2O8rXc9mUWwI-0S5-184" value="" style="aspect=fixed;sketch=0;html=1;dashed=0;whitespace=wrap;fillColor=#2875E2;strokeColor=#ffffff;points=[[0.005,0.63,0],[0.1,0.2,0],[0.9,0.2,0],[0.5,0,0],[0.995,0.63,0],[0.72,0.99,0],[0.5,1,0],[0.28,0.99,0]];shape=mxgraph.kubernetes.icon2;prIcon=user" vertex="1" parent="1">
          <mxGeometry x="170" y="412" width="50" height="48" as="geometry" />
        </mxCell>
        <mxCell id="BTvp2O8rXc9mUWwI-0S5-185" value="" style="aspect=fixed;sketch=0;html=1;dashed=0;whitespace=wrap;fillColor=#2875E2;strokeColor=#ffffff;points=[[0.005,0.63,0],[0.1,0.2,0],[0.9,0.2,0],[0.5,0,0],[0.995,0.63,0],[0.72,0.99,0],[0.5,1,0],[0.28,0.99,0]];shape=mxgraph.kubernetes.icon2;prIcon=user" vertex="1" parent="1">
          <mxGeometry x="170" y="344" width="50" height="48" as="geometry" />
        </mxCell>
        <mxCell id="BTvp2O8rXc9mUWwI-0S5-187" style="edgeStyle=orthogonalEdgeStyle;rounded=0;orthogonalLoop=1;jettySize=auto;html=1;exitX=0.995;exitY=0.63;exitDx=0;exitDy=0;exitPerimeter=0;entryX=0;entryY=0.5;entryDx=0;entryDy=0;entryPerimeter=0;" edge="1" parent="1" source="BTvp2O8rXc9mUWwI-0S5-183" target="BTvp2O8rXc9mUWwI-0S5-180">
          <mxGeometry relative="1" as="geometry" />
        </mxCell>
        <mxCell id="BTvp2O8rXc9mUWwI-0S5-189" style="edgeStyle=orthogonalEdgeStyle;rounded=0;orthogonalLoop=1;jettySize=auto;html=1;exitX=0.995;exitY=0.63;exitDx=0;exitDy=0;exitPerimeter=0;entryX=0;entryY=0.5;entryDx=0;entryDy=0;entryPerimeter=0;" edge="1" parent="1" source="BTvp2O8rXc9mUWwI-0S5-185" target="BTvp2O8rXc9mUWwI-0S5-180">
          <mxGeometry relative="1" as="geometry" />
        </mxCell>
        <mxCell id="BTvp2O8rXc9mUWwI-0S5-195" value="user" style="rounded=0;whiteSpace=wrap;html=1;" vertex="1" parent="1">
          <mxGeometry x="590" y="343" width="70" height="20" as="geometry" />
        </mxCell>
        <mxCell id="BTvp2O8rXc9mUWwI-0S5-242" style="edgeStyle=orthogonalEdgeStyle;rounded=0;orthogonalLoop=1;jettySize=auto;html=1;entryX=1;entryY=0.75;entryDx=0;entryDy=0;" edge="1" parent="1" source="BTvp2O8rXc9mUWwI-0S5-196" target="BTvp2O8rXc9mUWwI-0S5-177">
          <mxGeometry relative="1" as="geometry">
            <Array as="points">
              <mxPoint x="570" y="403" />
              <mxPoint x="570" y="449" />
            </Array>
          </mxGeometry>
        </mxCell>
        <mxCell id="BTvp2O8rXc9mUWwI-0S5-196" value="" style="image;aspect=fixed;html=1;points=[];align=center;fontSize=12;image=img/lib/azure2/databases/Azure_Database_PostgreSQL_Server_Group.svg;" vertex="1" parent="1">
          <mxGeometry x="595" y="369" width="60" height="68" as="geometry" />
        </mxCell>
        <mxCell id="BTvp2O8rXc9mUWwI-0S5-243" style="edgeStyle=orthogonalEdgeStyle;rounded=0;orthogonalLoop=1;jettySize=auto;html=1;entryX=1;entryY=0.75;entryDx=0;entryDy=0;" edge="1" parent="1" source="BTvp2O8rXc9mUWwI-0S5-203" target="BTvp2O8rXc9mUWwI-0S5-177">
          <mxGeometry relative="1" as="geometry">
            <Array as="points">
              <mxPoint x="706" y="490" />
              <mxPoint x="570" y="490" />
              <mxPoint x="570" y="449" />
            </Array>
          </mxGeometry>
        </mxCell>
        <mxCell id="BTvp2O8rXc9mUWwI-0S5-203" value="" style="dashed=0;outlineConnect=0;html=1;align=center;labelPosition=center;verticalLabelPosition=bottom;verticalAlign=top;shape=mxgraph.weblogos.mongodb" vertex="1" parent="1">
          <mxGeometry x="685" y="359.9" width="41.2" height="86.2" as="geometry" />
        </mxCell>
        <mxCell id="BTvp2O8rXc9mUWwI-0S5-204" value="chat" style="rounded=0;whiteSpace=wrap;html=1;" vertex="1" parent="1">
          <mxGeometry x="673.1" y="340" width="65" height="26" as="geometry" />
        </mxCell>
        <mxCell id="BTvp2O8rXc9mUWwI-0S5-234" style="edgeStyle=orthogonalEdgeStyle;rounded=0;orthogonalLoop=1;jettySize=auto;html=1;exitX=1;exitY=0.51;exitDx=0;exitDy=0;exitPerimeter=0;" edge="1" parent="1" source="BTvp2O8rXc9mUWwI-0S5-209">
          <mxGeometry relative="1" as="geometry">
            <mxPoint x="580" y="600" as="targetPoint" />
          </mxGeometry>
        </mxCell>
        <mxCell id="BTvp2O8rXc9mUWwI-0S5-209" value="" style="sketch=0;aspect=fixed;pointerEvents=1;shadow=0;dashed=0;html=1;strokeColor=none;labelPosition=center;verticalLabelPosition=bottom;verticalAlign=top;align=center;fillColor=#00188D;shape=mxgraph.azure.queue_generic" vertex="1" parent="1">
          <mxGeometry x="510" y="543" width="50" height="15" as="geometry" />
        </mxCell>
        <mxCell id="BTvp2O8rXc9mUWwI-0S5-233" style="edgeStyle=orthogonalEdgeStyle;rounded=0;orthogonalLoop=1;jettySize=auto;html=1;exitX=1;exitY=0.51;exitDx=0;exitDy=0;exitPerimeter=0;" edge="1" parent="1" source="BTvp2O8rXc9mUWwI-0S5-225">
          <mxGeometry relative="1" as="geometry">
            <mxPoint x="580" y="630" as="targetPoint" />
          </mxGeometry>
        </mxCell>
        <mxCell id="BTvp2O8rXc9mUWwI-0S5-225" value="" style="sketch=0;aspect=fixed;pointerEvents=1;shadow=0;dashed=0;html=1;strokeColor=none;labelPosition=center;verticalLabelPosition=bottom;verticalAlign=top;align=center;fillColor=#00188D;shape=mxgraph.azure.queue_generic" vertex="1" parent="1">
          <mxGeometry x="510" y="570" width="50" height="15" as="geometry" />
        </mxCell>
        <mxCell id="BTvp2O8rXc9mUWwI-0S5-226" value="" style="sketch=0;aspect=fixed;pointerEvents=1;shadow=0;dashed=0;html=1;strokeColor=none;labelPosition=center;verticalLabelPosition=bottom;verticalAlign=top;align=center;fillColor=#00188D;shape=mxgraph.azure.queue_generic" vertex="1" parent="1">
          <mxGeometry x="510" y="600" width="50" height="15" as="geometry" />
        </mxCell>
        <mxCell id="BTvp2O8rXc9mUWwI-0S5-227" value="" style="shape=image;imageAspect=0;aspect=fixed;verticalLabelPosition=bottom;verticalAlign=top;image=data:image/png,iVBORw0KGgoAAAANSUhEUgAAAoAAAAFoCAYAAADHMkpRAABOfklEQVR4XuzdB3gUx90/cGE7dmzHsdOdvE7y2uYOA7qT7tS7EAIhIRCi9947ovduU0zvvZreezdgem8ChGhCoqj3LvH776zj/+vsHEJ3utPenr7zPJ8nyS9odtVmv9rdmbEjIjsAAAAAqDi4AgAAAADYNq4AAAAAALaNKwAAAACAbeMKAAAAAGDbuAIAAAAA2DauAAAAAAC2jSsAANiCJ8+e2c1btuzjhUuX/0PwvwuWLFMzC5cs+1r43/9cuHTpn7fu2/eu9OMAACoCrgAAoERjJ075S7su3esI+goW1G/aYl9lre6UWqu/KLii1uivi7S6a8L/viz85zmdt99h4d9uaNelxyThP5sJ7G9H3n1f2jcAgK3hCgAA1qywsNDu6vUbn125fv2b4LDwsGo6lyWC20KoyxFCXZFKqy8WvFb/jN5C/Hc/f4yuSAiIhd84OicJ/e0S9F+1dp3H1evX/xEX9/w30vMAAFAyrgAAYI0ePXr8zqIlK76cOW9B6ypa/SohsN0VgluBgVBnNkL/KUKoPNCyXacRC5ctr7Ft254PpecFAKBEXAEAwNoMHz3hi3qNmk1Sa/QXhVCWLA1q5SBPOO5jvbvvlnZdegZdvX7zA+k5AgAoCVcAALAGkXfv/3bh0mUu1Zxc5qrFO3H6YnXpHuta0muVRl9QVedytU54eONr12/8LTU17R3puQMAWDuuAAAgpwcPHlVavHTVNy7eAePUWt0jFroMBDEroMuqbK/bNnDYyMZbt+75rfTzAACwZlwBAEAunTp3/iC0YbPuanv9BbVGl8eHLqtTLJznS0cXn2VNW7T65vTp09znBABgjbgCAEB5ys/Pt7t+8+ZnvftFhKjtHc+oNPpCtdXe9TNMOOdilb3uZTVH529PnznzdWxcHNYXBACrxhUAAMrLsbNn35k+Z66XSuu4XK3VJUmDlTI5nm3aqk3HhavX/DUrJ4f7nAEArAFXAAAoD2fOnf+rV+3gUSqtPlIITkV8kFIsdvcy+WtHp32DR472ln7eAADWgCsAAFhKUnJypRu3bv/VPzikfXW9a5QQlBT3uNcIr6s4OKVrXNyXLVq23OleVBR2GAEAq8EVAAAsYeOmTR/2jhgUVlnjuFUIR7kGApOtYgH3gYuP37BlK1d9GR0dzX1tAADKG1cAADC3pavXfGnv5LpYCEJxao24np80JNk+jS5brXE8Ua9xsxZJySnYWg4AZMUVAADM4dmzZ+8cOnrsK62L56iqOpdnKtt6z89UbN/hfK2Lx/7eAwb53Lxz5xM2C1r6tQMAsDSuAABQFokZGXZzt2z9c4PGTVurNLqf1D/v4CENQhUdC4IvvtY6zp42b75+/7Vr3NcRAMCSuAIAQFl07Rfh+W9n9+1CyElkQcdA+IH/U1jZQX/dNbR+nzPnzn8m/VoCAFgKVwAAMNa9e/ffnzl3nsbR3XO2EGrS1bjrZwwWkgvsnd2vBgQHN7oTGfmHlJQU7msMAGBOXAEAoLSuXr1qt3jpsi8cnV0Hq7W6u2oEv7LKUts7ruoXMTBw6dKlWDYGACyGKwAAlEZMbOz7gXXrNfyqqv0hcYYrH2bANIVCmH4sfF2nL1215u/SrzsAgDlwBQCAN8nJybW7E3n/4049ero4uHruUWl1uUJYwV0/C1AJQbCa3uWB3tO7z5FjJ7549uwF9/0AADAVVwAAeJNpM+Y6fF3VZaoQTmLVmOBRXgpV9vpDdcNaN7h77/6n0u8JAIApuAIAgNSRo8d/36PvgK5VHZ2vCYEk30BIAct6rdLqXtRt2GTNwKEjtdLvDwCAsbgCAACTnJxsd+/+/U/da9RsoHF2P6vWsMe9uOsnJ5VGxxbTTnLy8h03c/4C1YPo6Pek3zcAgNLgCgAA8QkJ7/fs08+nila/SK3RY4KH9SkUXNW7ufc8/uPJv0i/fwAAb8MVAKBim7dwyZ9adeg8Va3RPfhP0JCGD7Ae6V41Arf36j8gMObZM9wNBIBS4woAUPE8evXKbue+/X/X+fh2rqZziRSCRYGBsAFWic3C1mXo3H3WdezTp9qdO5G/zc7O5r7HAAC/xhUAoGK5cev2Jy5t2gZX1uoPCYEijw8YoBCv1Rr9w7//+8tRk6dOU0u/zwAAv8YVAKDi6B0RYV8nrNESlVaHZV1sR04VB6dzvfsPbHbk2LGPpN9zAACGKwCA7Xr9+rXdnTt33ps6ffq/3Xz8h6q1ukS24LCBEAFKpmF3A3WZGhePQz7+ATXv3Y/6OD4+nvt5AICKiysAgO06ePjoH//yjy+6CyHhghrv+VUIKo0+7d+qatNat2/vFJ+Q8BvpzwQAVExcAQBsz72oqPf6DBzk5+pbY7MQCtKlIQFsXr5aq7vVumPnUQsWLP1Y+vMBABUPVwAA25GYlPRBs5a9VXpP35VCAEjGvr0VGnssnFdN73rJ1cun6e49e/8k/XkBgIqDKwCA8hUWFtqt37j56w7deg5RafVRBsIAVGxZao1+m/Az4nfz1u0PpT8/AGD7uAIAKNuu/fvf7x0xqJFwgT8jXuj5iz/AzzT66JAGjb7v13/YV8XFxdzPEgDYLq4AAMr08NGjj2oH1/XVunruFi7uaWos6wJvx35GCoQgGOsdULv7nLnzPs/Ozn5H+rMFALaHKwCAssTGxb23YfMWB7/aId8JF/NkAxd5gLfT6PNVGv3xCd9Na3X46PHfSX/OAMC2cAUAUI4pc+b8rkW7DoPVGt1VdgHnLuoAxkt08a6xst+w4U53o6IqSX/mAMA2cAUAsG5FRUV2q9es/Uyjc65fVedyXq3V5arxuBfMq0il1b9w9vabEVQn+F9JycnvSX8OAUDZuAIAWK+r16+/v3LNOl+VRrdBjfX8oHxc79CtZ48Nm7d9UVBQwP1MAoAycQUAsD4ZmZl2vYYN/3et0LBv1RodlnWB8pZW2V5/uNegwUHb9u9/V/rzCQDKwxUAwHpkZWW907dfvz87efp2Vmn1D1UaHXvPD497QQ6vhZ/BRAc3zzVVqlV3jnoQ/YH05xUAlIMrAIB1OHjwyCejxk1oqtboDgoX3zwDF2QAmehe+NQKHrFx6w71s7jnWDYGQIG4AgDI68qVK5UiBg1x0Lv5LBcutq/UuOMHVkil0edW1uh/atGuc7eZM2fibiCAwnAFAJBHUlLyu9eu3/yXs5ffZJVGF6PW6AqlF10AK/NardFnVdM5H5rw7ZQaT2JifsdmqUt/tgHA+nAFAChf2dnZdlu37fp7i7YdOwkX06sGLrIA1k+jT6qsdVy8cs16l2vXbmKiCICV4woAUH727NlTqXfEoNpVNE57hYtoqhqPe0HZitUa3c2g0PBhY8eN/zwzM5P7mQcA68AVAMDy4p6/eH/dxs0Ojm5eS9UafYJ44eQvpgAKpBP+iNHlVHFwutGkZZsmMc9iP8vKysaOIgBWhisAgOU8iomptHXnrq+dPf2HCxfLp/zFE8Cm5Ah/4GwZNW5iyMGDxz+U/j4AgHy4AgBYxoCIiA+btm3fXuWgP67Gsi5QcbC72zGOrr6ze/Xtrzpz5gz3uwEA5Y8rAID5sK2znsXGfTRszHgPlb3DAbVWl/GfC6L0Iglg01QafUHlag73XDx9Bl6/efPz5JQUrB8IICOuAADmcfby5XcWLVvhUtleP1e4ACZKL4gAFZfjqeZt2zfZsmfvnzKzs7nfHQCwPK4AAGUTFxdn171nr7/6BtcdoNLqrwsXvCL+AghQobHZ7glfOzptGDVhoqf0dwgALI8rAIBpMjOzKsU+f/5JUFijhl9X01xUa3XZ/7nQSS9+APCzoqo6lzj/OiFT1m/apHrx8uV70t8rALAMrgAAxtu//8CHEcNGB1a2169TafT5Bi50APBm7A+le3ov7947du3+nydPnnC/YwBgXlwBAIyzbsPG/9XonWepNfrHakzwADCdRpet1jjubtamfXh8YuL70t81ADAfrgAAb5ecnFLp3IWLn9cICent4OpxW63V4a4fgHkUq7T6FJ/AOhuGjx6nef7ixQdsNr30dxAAyoYrAMCbpaWl2e3bf+CP4Y1bh6k1+pPsYmXgAgYAZfdaCIJxX2sdJy5csdL+ZGQk9/sIAKbjCgDwZv0HD/WopnNerdboXv285RV30QIA8yqo7KA/79awSadzFy59Jv2dBADTcAUA+G8vX8W/t2zlmv+tGVJ/XBUHp+cqrb7QwEUKACyH/bGV4eYbcDSsSdPAly9ffpSVlcX9rgJA6XEFAPjZ7du37bbt2PV5Na1nL+Hic1uNx70A1iBHrXGcP3jYcI+tW7dhogiAibgCAJBdTMyzD0LDGoZ++Y39NhWbmchfhABAPoVqre7uvytXGb92w6a/SX9/AeDtuAJARZVfUGD3Mj7h/f5Dhqh8atX5Qa3RJamxiweA1VJp9bkObp4Xa4XWb3n+4qU/pqSkcb/XAGAYVwCoqGYvWlztK53zGOHCEqvGDh4ASlKg0uj31Q1rWzP60aNPpL/bAMDjCgAVzfFTp38/cvzENmoH/XnhQpJn4OICANbvtUqri2ncqs288ZO+00h/zwHgv3EFgIqAzSCMT0j4bWC9ev6uPv77VVp9KruAGLioAICy5FfROj2pXa9B32Vr1vwtMTHxHenvPwAgAEIFlJiU9H7vfgOcVRrdTLVGn2vgAgIAyseWa7rgoHduy94PlI4DABUdVwCwZctWrvlT1979xqq0+tuCAgMXDQCwJRpdmk9g0OoxEyb6PY2JeU86JgBUVFwBwNakp6fbnTx56tPgemGNNS4e51RsHTHpRQIAbJiOLRvz3K92yPx+w4f/Iz4+/r38/HxurACoSLgCgC25FxX1ccMmTf2Ei8BeNSZ4AFR0r9Ua/YPP//W//afPmPWldLwAqEi4AoAtKCgosBs94btvwpq2mCEM+k8MXAgAoOLKVml0J8ZMnFz/+MmTv5WOHwAVAVcAULL8/PxKK1eu+l3d8EatVcJf+mrc9QOANxBC4CtX34DlTl26Vk1JTcVsYahQuAKAUh09erTS97PmeggD+1YBZvcCQGk9rx0W3mbX7j1/fPnyJTe2ANgirgCgRAeOHXuvuqO+uTCQ3xQUGxjgAQBKkvzPylUWdO3W/auioiJujAGwNVwBQEmKi1/bHT3x4x9cfGqMVGl1Lw0M6gAApaJir4xodBf6RAyplp2Tg0fCYNO4AoCSHDtx8p+Vtfr1aqzpBwDmE92rX0TDxMRETBABm8UVAJTi0JFjX7r5BrDwh0e+AGBObFvIR9379G9XUFBQSTr2ANgCrgBg7YqLi+2OHj+hcvWpsUMYpPMNDN4AAOaQ1GfAoBY5OTnYQQRsDlcAsHZHjp/4p1qr229gsAYAMC+N/lWPvgPaJOBxMNgYrgBgzQ4cOfpHF58ay9U/P6LhB2sAAPNiY010tz79QvPy8/E4GGwGVwCwRuyx75FjJz5y9fEfr9LqMw0M0gAAlsJCYFSfgQNVObm53PgEoERcAcAaJSWlvPtVFfeewiCcamBwBgCwuK+1+uMTZsz4l3R8AlAirgBgjWYtWOSoxp6+ACCv7LCmLaZEPYj+vXSMAlAargBgbeYvWflpdSf3vQYGYwCAcqXS6hMCgkOaZGVl4X1AUDSuAGBNXsbHf9CpR+8RwsCbJR2IAQBkcv/HU6f/KR2vAJSEKwBYi8zMLLuOXSJchb+4Iw0MwAAAsnH3rTHl2LFj70rHLQCl4AoA1uLps2cfVbZ3WiQMtkXSwRcqnioOTvSNo/P/x/639N8AlB/d47ETJ/sWFhZyYxeAEnAFAGtRs36YjzDQ5vADL1QEju7eFFS/ITVr05669+1PI8dNoKkzZtGMOfNo2szZNGbCJOrZL4JatOso/LtwcvLy4/oAsKAilVa3/vCx43+Ujl0ASsAVAKzBoUPHf+Ps5b/VwKALNozd1Qtu0IjGTvqWtu7YRddv3qKXr15RQUEBGWpFRUWUkJgo/rtde/fT2InfUkh4E6qqc+H6BjA7jf5lz94DgnNycrgxDMDacQUAubFHKsNGjfNTafQvuAEXbFI1vSvVbdiEfti0hZ7GPKOsrCx6/fo1GdPYv88UPu5pTIwYHkMbNRX7lR4LwIxeqzW61cIfKdgmDhSHKwDIbfeePR+rqmuWq7U6vPtn475xcKKwJi1o45atlJGRSeZsmZmZQr/bqHGrtnhfECwpt36DcC0ZGMsArBlXAJDbnv0HnIRB9baBgRZsiKObFw0aPpLuRN4lSzV2V/BB9EMaPHK0eDzpOQCYQ2jDplPJwFgGYM24AoCckpKS3wkIrtdDGFTzpYMs2A4nT19avHwlJScnG/2o19jG+k9OSaWlK1eRm19N7lwAykrj7HFj2crVfyUDYxqAteIKAHJ69Sr+U7VGd0w6wILt8AmsQ/sOHCQ52o+nTpNvrWDunADKRKNPGT95SlsyMKYBWCuuACCn2fPmqYQBNYMbYMEmsPC3decuyn/DrF5LN3Y3cPe+/eQfFMKdG0AZFDVo0mL+/agHmAwCisEVAOQUWLdeZwODK9gAnbs3rVi9lnJyc0nOlpeXR2vWbyBnrBsI5qTRnTp4+GhlMjCuAVgjrgAgl1sxMXYeNYN2cwMrKB6bhTvhu2niun3W0Ni6grPnL+TOE6AMkqbPX1A7v6CAG9sArBFXAJBL32nTPv3KwSnKwMAKChfevBXFPn9O1tRS09LEJWik5wpgouIvHZ16JyWnvEMGxjcAa8MVAOQyfMw4D5VG98rAwAoK5uTlSzv27KVCM939M+es4UNHj5HOw4c7ZwBTVNboVgoB8EMyML4BWBuuACCXEWPHdVFrdenSQRWUiz36jRg2glJTU8nUJi7jkpxCkXfv0fmLl8SZvGfOnaer12/Qk6cx4jt9pjZ2F3D4mPH0jaMzd+4AxlJp9FeFn9Xfk4HxDcDacAUAuYwYO36yGuv/2RRnbz86fPQYmdJY8EtKTqZtO3ZR/8HDqFZoA9K6eor9ssDm7leTmrVpT9Nnz6FrN268cb/gkho7xrETJ8kroDZ37gBG0+hTly1f/mcyML4BWBuuACCHkz+de9/NL3C1mu2tKR1UQbEaNm8l7utrbGPBLCo6mjp060lOb5mtW03vQgHB9WjhkuVUUFho9CPitPR0at2xK9cvgAlehzZobE8GxjgAa8MVAOSwc8++P6s0eswAtjFsuRVjG7uT9/OCzXW4/krCHjcPHTWGXsXHGx0CN2/fwfUHYIrgsEYhZGCMA7A2XAFADkIA/Ldaoz8uHUxBuTTO7vTg4UMyphUXF9PV69epXqNmXH+lwR4RT50xizIyMqRdl9jYDOWqOheuPwBjCQGwIxkY4wCsDVcAkMPOPXu/UWt056SDKShX/cbNxUkWxrSMzEzqEzFIvJsn7a+02CPjEydPSbsusbHgGdKgMdcXgLGEADiYDIxxANaGKwDIYeeefVph8LwqHUxBuUaNn2j0rh9Hjp/g+jFFeLOWlJ+fL+2+xDZi3ASuHwBj1WnQaAIZGOMArA1XAJCDEAD1Kq3+pnQwBeVaunK1OCmjtI29t9er/0CuH1NU17vS9Rs3pYcosa1au57rB8BYwQ0aTSUDYxyAteEKAHIQAqCzEABvSwdTUK5de/eLj1ZL25KTk6lmcD2uH1OwZWIWLV0uPUSJ7dDR41w/AMYSAuAMMjDGAVgbrgAgBwRA22Lv7C4+zjWmsbX8PPwDub5MNWDIMOkhSmwXL18p07uHAAwCICgFVwCQAwKgbXF096bjRk7EOHv+Arn5BnB9mapzz97SQ5TYrt24SdWd3Lh+AIyBAAhKwRUA5IAAaFvYEjBHjh0nYxq7A+fmZ74A2HvAIOkhSmyXr17DHUAoMwRAUAquACAHBEDbs3vfAaMWZI57/pz8agdz/ZiCBbnps+ZKD1FiO3P+AtcPgLEQAEEpuAKAHBAAbc+yVWuMmgVcVFRErTp05voxRTW9q9GPoLfu2MX1A2AsBEBQCq4AIAcEQNszbvJ3lGvkOoBs6zhpP6bwCaxDmZnG7UE8e/5Crh8AYyEAglJwBQA5IADanvDmrSgtLZ2MaSkpqeLHSfsyBpuBvG7jJqMeP7PWpnM3ri8AYyEAglJwBQA5IADaHgc3T3ryNIaMaYWFhbT/0GHyDqjN9VcabP2/Xv0GUnxCgrTrEhu7U+ni48/1B2AsBEBQCq4AIAcEQNu0efsOMrZlZ2fTkhUrxQAp7e9tGrdqS5GR94xagJq185cuYQYwmAUCICgFVwCQAwKgbWrZvpPR7wGyxh7f7tq3n2rVDaNqOheuXyknT1/q0S+CEhITjX70y+46Dh8znuvTktjn5OpTg3xrB1Ot0DCqE9aQatcLp0Dh8/WtVYdcvP2paik+b7A+CICgFFwBQA4IgLbJ3S+Azpw7T6Y0Niv4xs3bNHna91Q3vIn4eFfaPwt+XXv3pQ2bt1Jqaqq0i1K1e1FRFNKgEde3udk7u1GDZi1pyMjRtHDpctqz/4C4+PWtO5H0IPoh3b13n27evkM/nT0nbqM3f/FSGjR8JNVr3Ezc21jaH1gnBEBQCq4AIAcEQNvEQtuocRMpM8u4Gbm/blnZ2RT1IFpcWHrRshX03fSZNHPufNqwZZu4ePSr+HgqFMKiKY19HFuuRuPizp27uTi6eVGPvhF05OhxevT4MaWnp5fqETX7N2lpaRT98BEdOnqMuvTqQ1pX4x+LQ/lCAASl4AoAckAAtF2eNWqJ+wKXJvS8qbHHur9g/TC//O+ytDuRd9kFmzvnsmLvE3rXDKIxE78VQt+T/3++pjb2seyO6IOHD2nE2PHkGVCLqhg4LsgPARCUgisAyAEB0La179qDUlJSyJoaC1VjhYAmPdeyYvsJd+3VT1yIuqCgQHrYMjfWJ7sj2EH4muLRsPVBAASl4AoAckAAtG1sZw72qNWa2rkLF8XHs9JzLYuqjs7i4+kXL1+W6Y7n2xq7GxgX95ymfj8Ls5etDAIgKAVXAJADAqDtY7NeDx4+apG7YsY0Fsxu34mkug2bcOdYFjXqhNKuvfvK9fNjx9qybQf51KrDnQ/IAwEQlIIrAMgBAbBiYLN52Z03dgdLjsYe+z6NeUZdevYxOKvYVP5BIXTgyFHKz8+XHtLiLS8vj3bv20/egQiB1gABEJSCKwDIAQGwYmCPK+s3bk737keRHC0rK5t69h8oPpKWnpup2Dt/e/cfLNc7f9LGgue2nbvNGmrBNAiAoBRcAUAOCIAVi3+dunTy9BmTFok2pbHFntl6fx279+TOpSzYO4Qr16yTNfz90tg5sLUDtS4e3HlC+UEABKXgCgByQACsePyD6ooTQ9LS0smSjT1uPnD4CDVq2dqsEybYTh2DR4yixKQk6SFlay9fvaJeAwaZ9fME4yAAglJwBQA5IABWTHpPH+o/eJi42LElWnJKCs1duFhck0967LKqERRCN27dLtP6fuZubILLuQuXxO3kpOcL5QMBEJSCKwDIAQGw4qrioCd3/5o0edoMirx7T9z5oyyhik2KiHkWS6vX/UBB9cIt9l7cspWry3SerLGPZ4/B09LTRdk5OWVePoZ9/JwFi7nzhfKBAAhKwRUA5IAACEyNOnVpwndTaf+hw+Js3aKi0oUhFqTiExLox9M/0ez5C6lJq3YWfQxaM6Q+xcfHS0+j1I29r3fz1m3atHUbTfl+Jg0dOYYGjxxNE6dOpzU/bKSLV65QTo7p70e+ePmKvAJqc+cNlocACErBFQDkgAAIv2DBzc03gMKbt6IZc+ZRSmoqva2xd/xadehMPoF1qJrOhevT3GYJIdPUiR9xz1/QhG+nUlD9huRgYG9fe2d3IWDWo4HDRop7IJvS2KSXiVOmc32D5SEAglJwBQA5IACCIS3adaTYuDh6W1uwZLm4HIv04y2BTV65ev2G0Y9/2VIt7M5mUP3wUt2dZP/GJzCI1m7YKD4WN6axc7t89Zq4D7O0X7AsBEBQCq4AIAcEQDDEGgNg7wGDKCk5WXoKb237Dx42aTKKk4ePuNSMse8Gvnr1irr06sv1B5aFAAhKwRUA5IAACIZYWwBkC0izdwyN3ckkKjqa6oQ14vorLa+AWuIOKsY09oh6+uy5FpsEA4YhAIJScAUAOSAAgiHWFgA9/APp2IkfpYcvsaVnZIrv85XmsW9J2nbuRi9evpR2/8bGHgPvPXBQ3INZ2hdYDgIgKAVXAJADAiAYYm0BsGZwPbofZdw2dmfPXyC/2iFcX8Zy9vKjXXv3GfUo+PrNWxQQHMr1BZaDAAhKwRUA5IAACIZYWwCsG96EUksxK/mXxh7DLl2xymyPYcdN+paysrKkh3lji3v+nELCG3P9gOUgAIJScAUAOSAAgiHWFgAbNm9t1OzftLQ06jtoCNePqZq2aS9u91baxmYPs+V0pP2A5SAAglJwBQA5IACCIdYWANt06io9dIktMTGJWrbvxPVjKvY49+mzZ9LDvLGxx8VNWrfj+gHLQQAEpeAKAHJAAARDrC0AdujWU3roEltCYiI1a9Oe68dUPrXq0JOYGOlhSmxNEQDLFQIgKAVXAJADAiAYYm0BkJ2PMY+Ak1NSqKsZ1+Kr16gpxcU9lx7mjY29g9i4ZRuuH7AcBEBQCq4AIAcEQJBiW6L1iRhUqnfe1qzfIM6SlfZhbmFNWlBubp708G9s2Tk5NHnq91w/purVfyAlJ6dID/PGlpiURPUaN+P6ActBAASl4AoAckAABIYttNy8XUeaNXc+HTl+QtwLl22h9rbG1sc7deYMLVu1hnoPGGixte/q1G9o1Fp87B28Hbv3kKO7F9eXsdhM4kXLVpTq6/FLexAdTbXrNeD6AstBAASl4AoAckAArLh07t4U1rQlzRRCX/TDR+Jds4KCQqMetbLG/j3boSM3N5dSUlJo97791LV3P/IJrGO2ZVhYXxcvXZYeusQW8yyW2nTswvVlLLYEzc3bt436uhw7cVJcvFraF1gOAiAoBVcAkAMCYMWjcfGgVu0709oNGyk+PpEs0fLy8unKtWs0cuwE8g8KKfNuHDoPb9q4Zav0MCW2YiGwbd+1hxzdTL8LWF3vSgsWL6X8ggJp929sLCguX7WGNM7uXH9gOQiAoBRcAUAOCIAVi3fNIFq5dj09jXlm9L66xjYWhDKzsuj8pUsUMXQEdy7GYHcSp86YRYWFhdLDlNjYenyjxk3k+iutjt16GvXuH2sZGRk0dNRYri+wLARAUAquACAHBMCKwdHdm3oPGEyPnjwxOkSVtbEgmJObS9t27qa6DZtQVZ0Ld35vwoKfZ41aNH3WXIqPTzDqMewvLSk5mUZNmCQ+8pb2/ybsLmmPvgNKNRP6142d3917URQS3oTrEywLARCUgisAyAEB0PZ5BdQSH0mmpKaRnI1NzIi8d48iho0o1SNhvYcP9Rs8lH46e56KjNiH11BLSU2l1et+EAPo244dEFyPZs9fRC9KMQta2tjnuGHLNqNCLpgHAiAoBVcAkAMCoG3zFMLf3gOHKDev9EuoWLqxRZpHjpsozjyWnu8vguqH0669+8XlVEy562eoFRQW0q07d8QZva06dhED5i/H07p6iuv2zZgzjy5duSpOaDGlsZnCzdt24D4fsDwEQFAKrgAgBwRA28TucoWEN6ZTP52hQgu/62dKS0tPp7kLl5CTp+9/nTO7+zZr/gJ6/vyFeDfN3I2FSfYIPCsrW5yx/Cw2VtzijS0cnZmZJS7gbGrgZB934PARs818BuMgAIJScAUAOSAA2qZa9RrQ6bPnLBKizNXYBJEFS5aJj0tdvP2p76AhdO3GTas+55IaWzgbd//kgwAISsEVAOSAAGh72GQHdidKCUGKhcB5i5bQrr37xMkapt59k7vl5eXRwqXLxUfJ0u8HlA8EQFAKrgAgBwRA28LWvFu5Zh3lGbFrhdyNPXa19JI0lmwsaB878SP5BAZx3w8oPwiAoBRcAUAOCIC2o5rehYaPHiveSasojb3LJ3dj2+Zh2Rf5IQCCUnAFADkgANqOwLr16d79KKoILTMzk7Zs30Gjxk+i5y9Kv0ewuVtMzDPq0rMv972A8ocACErBFQDkgABoG9hEio1btpnlvT/2ODYpKZlu3o6kNes20IAhw6hJq7ZUu14DCqoXTk1bt6dBw0fSD5s20527d8WdMsxx3Lc19n5gdnYOnT1/ntp26iou1sxm3LJ9h+9HPSiXc/ilsWPduhNJHbr2wKxfK4EACErBFQDkgABoG1q270jpGZlUlsYCFpvJunX7LmovBBu2e4j0OFI6Dx/q3KM37d53gOITTNupozSNLd0SefceTfl+lnhM6Xk0a92ezl+8VC7vEhYUFNKZc+epQdMW3HmAfBAAQSm4AoAcEACVz8HNi7bv2lOm8MM+9uz5C9Stdz+jtkz7hbOXn7h12uWr16Rdl7mxRZnZxJb6jZuXuHh0nbCGtHbDRkpPz5B2YbaWmpZGK1avpcC6YdzxQV4IgKAUXAFADgiAytehWw+KjXtu8t237JwcWicEJ1cf/7duk1YS9rFufjVphxBGc4Q+y9rYe36nz5ylNp27ksbZnTueIeyxcLsu3enCpcuUkZFhlsfCrI/09HT66dx5atm+U6nPBcoXAiAoBVcAkAMCoLKxwLNs1WqTg066EJLY1mhs+Rhp36ZiQZLtPZyVbfoMXbZDx+gJk8nJ6/92CjEGe3w9ZMRo2nvgIMWZuKsIuyv6LC6Odu3bL74H6eCGNf6sGQIgKAVXAJADAqCy+dUOFt+NM6Wx9fc2bd1Obr4BXL9l5eEfSDt275UestTtxKnTJT7uLS22w0irDp1p8rTpdPDIUYoRgmVJj8rZu4ZPY57RvgOHaOJ3U8V3K3+9XR1YLwRAUAquACAHBEBla9+le4mBpqR29foNMahJ+zQXD/+a9ODhI+lhS9XYu3bsvUJpn6Zis6TZXUEWdmuHNqA2nbpSxNARNHzMONGAIcOpVccuVKtumPhvHN29MLtXYRAAQSm4AoAcEACVjT3+NaVlZGZSh249uf7Mrf/gYeL7c6a0bn37c/0BvAkCICgFVwCQAwKgst28fYdMafsOHja4nIq5edaoRUdP/Cg9fKna0pWruf4A3gQBEJSCKwDIAQFQudj7bampqWRsS0tLpz4DB3P9WQKbGTxi7HhKM+Eu4MXLV8RHt9I+AQxBAASl4AoAckAAVK5mbdpTVlYWGdsuX7tOgaHlt44de6/uQXS09DTe2h5EPxQnuUj7AzAEARCUgisAyAEBULnYJAa2SLIxjS2Hwmbn2ju5cf1ZCruLd/zkKempvLWxpWAatWjN9QdgCAIgKAVXAJADAqByTZ46nfLz88mYlpeXR7PmLeD6srRFy5ZLT+WtjW0t16VXX64vAEMQAEEpuAKAHBAAlWv+4iXiWn7GtMysLBo2eizXl6Wx9wCNbcnJKdR34BCuLwBDEABBKbgCgBwQAJVr+eo14sLFxjS2T26fiPKZAPJrbJ09YxtbC3DQ8FFcXwCGIACCUnAFADkgACqXKQEwIyOTIoQwJu3L0gYOGyE9lbe21FQEQCg9BEBQCq4AIAcEQOWas2CR0Y+As7Ozaeykb7m+LG3SlOnSU3lrS0pOpt4DBnF9ARiCAAhKwRUA5IAAqFwTp0yjPCMngbDAuGT5Kq4vS1u3YZP0VN7aXsUnUKcevbm+AAxBAASl4AoAckAAVK6+AwdTjpHLwLx+/ZoOHztu1n1238bBzYsuX70mPZW3tphnsdSgaUuuPwBDEABBKbgCgBwQAJUrrElzysw0fiHo6EePqHGrtlx/ltKyfSeKjXsuPY23tvtRD8jDP5DrD8AQBEBQCq4AIAcEQOVydPOixMQkMraxtQAnfDu1XLZZqyYcg607yI5pbDt99my5nCPYBgRAUAquACAHBEBlO3v+ApnSbt66Td41g7j+zC2kQWO6efuO+OjZ2DZ34WKuP4A3QQAEpeAKAHJAAFS2abNmk6ltxtx5VMXBievTXL4R+l6+ao24/ZyxjQVG9uhY2qe5fOPoLL6b6OLtT87efuTg6mnRrwVYHgIgKAVXAJADAqCyNWndzuiJIL+0589fUKsOlgtZbTp2pbS0dOlhS9VevoonnYc316epquldqE5YI3FdwfmLltCW7Tto38HDdPT4CTpy7ITw3w/Rpq3bxLuOA4aOoKB64eLja2k/YL0QAEEpuAKAHBAAlc0zoBadvXCRTGnsztylK1cprGkLs979Yn01bN6Kbt+JlB6y1G3/ocPiHTpp38Zgd/VqhtSjaTNn07UbN+lVfDxlZGZSfn6BwUfSrMb2Vk7PyBAC6Cu6fOUaTZo6nWrUqUtaFw+uf7AuCICgFFwBQA4IgMrGJkl8O22GSZMsfmmXrlyhRi3bcH2booqgdacudP3GLYMhq7QtKyuLFi1dTnXDGxs9EUQjhLU2nbrSpm3bxf2Ey3Ie7GPZRJt1GzeLfdo7u3HHA+uAAAhKwRUA5IAAqHzhzVtR1INoKku7cfMWde7Zx+iw9WvsY3v2jxDPpSyh65fGFq1mE0gmfjet1HfgAuvWp2UrV4trCJqzsc/nWWwsLViyjGrUCeWOC/JDAASl4AoAckAAVD4WvNi+wMZuC/frxh4HJyQm0pr1P1BNIUTZO7tzx3kTjYu7ONv3h01bKDHJ+GVpSmoseGVlZ9PJ02eoZbuO4t096fGZanpX6tyjN0XevSc+xjVHAJU21mdeXr4YStt37SEeU3oeIB8EQFAKrgAgBwRA28DedTPXXS+2BduyVWuoW5/+7KJKek9f+sbx/94RZDNo2czZug2bUPe+A2j1uh8oJTVV2o3ZW1pamvgotl6jZuI5/HI+bFeT8d9OpYyMDOmHWKylp6fTmImTyUn42ki/FyAPBEBQCq4AIAcEQNsxfdYck5ZcMdTY3a6U1DS6ces2HThylDZu2Uor1qwTsdmyh44eo9uRkeIsX0vcbXtTKxaOxc5p3OTvyNXHnxzdvWn2/IViAC3P8xC/PikpNGPOfPEcpN8LKH8IgKAUXAFADgiAtsM7MEh8VGquEPjrxgJPUVGRqDyDlqEmPhbOyqKLl6+IdwTZI2K5WlZWNk2dMatM706CeSAAglJwBQA5IADalpbtO9PDx49lD2kVqeXm5tLAoSMRAmWGAAhKwRUA5IAAaFuq611p+Jjxst4VM7axu4pKbixs338QTU1bt+O+H1B+EABBKbgCgBwQAG0Pm8G7aNkKcTasNTcWnDIzM2nAkOG0at16SkhIpOJiZd65ZCF2/8FD5FEjkPt+QPlAAASl4AoAckAAtE06d29xwkZmVhZZY2Ph78XLl+LWbL+cc+NWben4j6fEGbZKbCxwjxo/kfteQPlAAASl4AoAckAAtF2eNWrR0pWrKTfX9F1CLNVevnxFQ0eN4db18/APFEMU20bOUpNZ2HZwbAu8jZu30rxFi0XrN26mC5cui9vAleX9yQcPH5Z5CzswDQIgKAVXAJADAqBt03l406z5CygjI7NMwcZcjYW6+PgEcSHl6k6Gt1Vjkyl8awXTqrXrKTkllYqKyh4E2XFZ8Nu4dTs1atGavAJqiXdJ2TkwjkJoY4GZ7aqyZt0GSk/PMCmAssW4h4wcw31OYHkIgKAUXAFADgiAto/tWNEnYrC4g4VcEy5Y+MzJyaFjP56kBs1acudoCFvsuUmrdrR734EyLfJcWFhIV65do47de/7XAtJvwv4N2/f3/KVLVCB8rDGNfZ5nz18gZy8sEF3eEABBKbgCgBwQACsGFmrCmrSg7bv2UF5e+T8SZlvETfl+FvkHhXDn9jZsp49R4yZQ5N370m5L1Vj4q9+4Gdfv29QNbyyGOWNbbNxzatu5G9cfWBYCICgFVwCQAwJgxeLs7U/9Bg2lGzdvUU5urkUfC7NHqGz7NrZrSLM2Hd74yLc0HFw9xZnCxjY20aRh81Zcf6VVN7wJxcbGGfV1yi8ooCkzZlEVh//bPg8sDwEQlIIrAMgBAbBicnT3omGjx4l3uBIS2fIrxr/v9qbG3oN7GhND+w8ephbtOpbqsevbsPfzTp7+SXqoElt2djaNnfQtVS3D8dm5Dxk1Rnx/0Ji2e+9+chHCtrQ/sBwEQFAKrgAgBwTAis0roDZ179OfVq5dT5H37pn8eJjdIUtNS6Mz587TtJmzqUX7juTg5skdz1S16zWgp09jpIctsV2+eo1qhYZxfRmLPbY29lHwtRs3qUadUK4vsBwEQFAKrgAgBwRAYFhY86sdQs3bdqBvp8+g02fPilucva09evxEXEKFLeYc2qiZeKeOTTqR9l9WYU1blOp8fmls8saylavLdPfvF+wu4NyFiynPiIW1X7x6JXw9mnJ9geUgAIJScAUAOSAAgiHs0W1sXBy9rc2cO98sj3jfpnPPPtJDl9jYu4ds5rO0H1N16dVXnMhS2sYegzdu2YbrBywHARCUgisAyAEBEAyxtgDYf/Aw6aFLbPEJCdSkVVuuH1PVb9KC4p6/kB6mxNa6Q2euH7AcBEBQCq4AIAcEQDDE2gLgsFFjpYcusb16FS+EtuZcP6aqHdqAnsXGSg9TYuvUvRfXD1gOAiAoBVcAkAMCIBhibQGQvWNoTItPSKSmbdpz/ZgqvHlLev7ipfQwJbbWHbtw/YDlIACCUnAFADkgAIIh1hYAu/TsKz10iS0tPZ0iho7g+jFVz/4DKTk5RXqYNza8A1j+EABBKbgCgBwQAMEQawuAbDHnfCNm4bLt31asWWeWWcBsQef5i5eKCzyXtr2Kj8cs4HKGAAhKwRUA5IAACIZYWwBk6wDGPHsmPXyJje19XLdhY64vY9UKbUBXrl6Tdl9iu37zJgVgHcByhQAISsEVAOSAAAiGWFsA9AyoRad+OiM9fImNrRv4/ey5ZVqXsKrOhSZNmU45OTnS7ktsu/cdwE4g5QwBEJSCKwDIAQEQDLG2AGjv7E5LVqwyak9e1hISEsr0Ll69Rs3E/YSNaQUFhWLwxF7A5QsBEJSCKwDIAQEQDLG2AMj0HjCIkpKTpafw1vbw0RNxhxNj7gSyO3+NW7ale/ejpN29tcXGPae2XbpxfYJlIQCCUnAFADkgAIIh1hgAawTVFffYNfYuYHFxMd2LekDDx4wjjYsH16+UvZMbDRw+km5H3qWioiJpdyU2dm5sP2RnPP4tdwiAoBRcAUAOCIDwa9V0LuTg5kWDho8q1dZncxctIa2rZ7mEQHaM+cLx2D6/xjYWzFLT0ujwsePUrkt3cvL0oepC0GN3BRn233Ue3uLaffsOHqbklBSjgyZrbPbxhG+ncOcOlocACErBFQDkgAAIjE9gHerRdwBt2LTFqAWP8/Ly6Mat2zR7/kIxPHnWqMX1bU5eNWsbdX6GWrEQ7NhWcafOnKWtO3aKTp7+iV6+ihf/v7K0R0+ekrYUdxnB/BAAQSm4AoAcEAArNlffGjR01Fg6cfIUZWZlkamtuPg1JSYm0ZFjx8V9e529/bhjmQsLm+yxrrU1tk7huMm4+ycXBEBQCq4AIAcEwIqJPU5t0qotnT5zVtw1w5THnYYa6yclJZWO/3iKWrTrZJFHwzVD6tHV69fNds7maOxcjp88Td41g7jzhfKBAAhKwRUA5IAAWPF41gikGXPmUUZGJlmyscfDs+YtJJ9A84eiTj16U2xsnFWEQHYO0Q8fUov2nbjzhPKDAAhKwRUA5IAAWLH41Q6hnXv2UlZ2NpVHy8nNpQOHjlBIg7LvyPFrbF3Ab6fPEEOm3C0nJ5eGjhpjkbudUHoIgKAUXAFADgiAFYdXQG06/uNJKjBiT1tzNDYz9satW+QfFMKdU1k4unvR+k2bqUim9wHZnT+26PPSFavFQCo9PyhfCICgFFwBQA4IgBVDrdD6dPrsOdkmT7CwxPbmDWvSwqw7ZDh5+tLq9RvKNIHFlCYuK5OaSrMXLBKCqDd3XlD+EABBKbgCgBwQAG2fk5cvbd+5W5ylKmdjdwLZ5BBz3wn08K9JcxYspMzM8guBbE3BCd9NJb0QQKXnA/JAAASl4AoAckAAtH2Tpkyj3NxcsoaWn19Aa37YYNa7gAxbvJotZyOu5VdcbJHJIaxP1vejx4+pT8RgPPa1MgiAoBRcAUAOCIC2rXm7juKjSmtrvQYM5M7VHGqFhtHGLdvEhZ7NGQJZ8Hv+4gUtX72W/GsHc8cF+SEAglJwBQA5IADaLne/ANp/8JDR+9mWR7ty7Zq4np/0nM2B7cTBAuaefQcoKTm5TEGQBT92V3Hztp3UuWcfqqpz4Y4H1gEBEJSCKwDIAQHQdvWOGETJySlkSmOhiWHv7bE9gS9duUpHjp+g02fOiY9Ac/PyyvSoNTsnh6Z8P9OiS6e4+tSgxq3a0KKly+nJ0xjxHUgWhn8571+f+y//m/1/7N/kCf82Kjqa5ixcRA2atRQnm0j7B+uCAAhKwRUA5IAAaJtY+Pnx9E9kSmMhKDYujjZt204t2nU0GNLY4s5TZ8ymazdumPx+4e3IuxRUvyHXtyWwz6FmcD0aPGI0LV25mg4eOUpnz1+gi5eviM4I/33/ocO0aPlKihg6Qlwv0dzvKYJlIQCCUnAFADkgANqm5m07mLQ0Cgt/Z86dp7adu5VqkgN7jLtgyTLKMuFY+QUFNHjkaK7P8sJCoYObJzm4eiLs2QAEQFAKrgAgBwRA27RkxUoytrHwd+zEj0bflWMBiu3KkZ6eYfQjYbYwtbQ/AFMgAIJScAUAOSAA2h525+7xk6dkTGPh78dTP1FAnVCuv9Ko7uRK3077njIzjdtfmL2Xxx5XS/sDMBYCICgFVwCQAwKg7Qlr2oLS0tLJmMaWimnTuRvXlzFcfWuICz0b27r26sv1BWAsBEBQCq4AIAcEQNvDFkRms2yNaWwChDmWOOnQtYfRj4HnLlrC9QNgLARAUAquACAHBEDbw2a5FhQUUGkbW+qldceuXD+mqK53FWf3GtOOHDvO9QNgLARAUAquACAHBEDbwmaz7tq7z6i7cGzJF5/AOlxfpmAza1etWy89RInt6vXrpZpxDFASBEBQCq4AIAcEQNtS3cmNDh87TsY0th6em695JmKwADpm4mTpIUpst27fIWdvP64vAGMgAIJScAUAOSAA2hZHd286ftK4iRhHj58QApg/15ep+g4aIj1EiS3y7j3yrFGL6wfAGAiAoBRcAUAOCIC2RePiQUdP/EjGtFNnzpp1KZaho8dKD1Fiu30nklx9A7h+AIyBAAhKwRUA5IAAaFvYO3gHDh8hY1rUg2jyCqjN9WUK9gh47sLF0kOU2K7fvEVaV0+uLwBjIACCUnAFADkIAdBJCIC3pIMpKNeaHzZSUVERlbaxWcBNWrbl+jEFewfxyrXr0kOU2NiexdJ+AIwVHNZoOhkY4wCsDVcAkIMQAB2EwfOadDAF5fpu+kzKy8sjY9rKteu5fkwR2qip0cdevX4D1w+AsYQAOIkMjHEA1oYrAMhBCIDV1Br9BelgCsrVpVcfyszKImMaWwqmVmgY15cx2OPnDVu2Srt+axsxdjzXF4Cx6jRoNJIMjHEA1oYrAMhh5569X6o1uh+lgykol7OXH718+YqMaeyRMXt30LNGINdfabAFoFmQS0lNlXZdYisUjutfO4TrD8BYwWGNepCBMQ7A2nAFADkIAfAvKo1ur3QwBWU7cuwEGduysrJoxZp1QoD05forCZv40b1Pf3r46LG0y7e2+w8eiHcOpX0CGCu4QaNwMjDGAVgbrgAgh517936o0uo2SAdTULaIocPJlMZC4Kat28W7iNI+DWHhr0/EIHoWG2fU7iO/tDkLFnF9ApgiOKyROxkY4wCsDVcAkENxcbHdsNFjpwsDaIF0QAXl8g4MEhdYNqUJPxP06PETGj95CrurIu7SUVXnIvbLAp+Dmyf51Q6mTj1605Hjxyk3N9ek8MdCY1iT5ty5A5ggJyJi4N/IwBgHYG24AoBcRowZ30Ot0WcaGFRBoao7udL0WXMoLz+fTG3svcDoh49ox569tHDpcpom9Mfu2K3fuInOXbhIWdnZ0g8pdWNLz6z9YQM5untx5w5gLJVWH5mcnPIpGRjfAKwNVwCQixAAg4QAmCAdVEHZQhs2pTuRkWSuxu4MmqvFxj2nVh07c+cMYAohAO4UAuDHZGB8A7A2XAFALoOHjvxL5eqOj6SDKijfoBGjKCMzk6ypsSA5beZs7lwBTPT6a61+aFJyyrtkYHwDsDZcAUAu27Zts9O5eR02MLCCwmldPWjX3v1kTe3y1euk9zRupjFACTK6DIiol52Tw41tANaIKwDIKTCk/ggDAyvYADaRI/KeaRNCzN1inj2jtp26cucIUAY3Dx456kgGxjUAa8QVAOTUpVd/e2EgzTUwuIINaN6mA925e8+s7/EZ09gsYRb+evaLEGcSS88PwETFX1bVrN574OAnZGBcA7BGXAFATi9fxf9BpdWfNTDAgg1goatj917irF45WmJSEvUfPIyqYtFnMCtdRlBoWO9bt25xYxqAteIKAHISAuBvvrbXjxEG1df8IAu2gIXAdl26U7QJO3aUpT1//oIGjxiNHT/A7FRa3eNx306pTgbGNABrxRUA5PT69Wu7bbt2ewt/UUdLB1mwLbVCw2jn3n2UaeHZwXl5eXTi1E8U3qwlHvuCRYSEN15VUFDAjWcA1owrAMhtz779f1BrHNcLA2uRdKAF28J295g09Xt6EB1t9vcCi8X3/WJp8fIV5OEfyB0bwEzyQ5o0CyADYxmANeMKAHKLj4+369S9VwuVVp9sYLAFG8O2d2vYrCUtWbGKkpNTyByNbQu3ftNmat6uI2lcPLhjApjRTz+eOfN7MjCWAVgzrgBgDRauWvVbe2f3EwYGW7BRLAj6BAbRd9/PpAsXL1Hc8+fiNm9vuzPIZvbm5OTQy1fxdPX6DZq7cDEF1Qv///sGA1iKSqvLDKwb2iIjM7MSGRjHAKwZVwCwFnVC64cJg2yedNAF2+fo5kVNW7ejcZOn0Io162jvgYN05tx5unzlGt28fZuuXL1G585foIOHj9Ka9Rto8rTvqW2XbuTk5cf1BWAhxUIA3H/42PEvpGMXgBJwBQBrceTo0c9UWv1BAwMvVCDsTp6Ltz/51w6hwLphVCesIdUS/rNGnbrk5htA1fSu3McAlIPkHn36t0tITHxHOnYBKAFXALAWKampdoFBwYEqje6ZgcEXAEA2GhePzcvWr/+tdNwCUAquAGBNIu/d+7he42ZT1dgdBACsx6vFy5Y7SMcrACXhCgDWZuz4775Wa/Q3DQzCAADlreDr6vqxGRkZ70rHKgAl4QoA1iYvL8+ua+9+ASqtPsXAYAwAUF4K3f1rbjj500+fs0XrpWMVgJJwBQBrlJyc8v43DvqxwgCcaWBQBgCwPI3+xndTZzlLxycAJeIKANYoPz/fbvqsWX9XaR03CANxATcwAwBYlC6nZnCD+lFRjzDrF2wCVwCwVmyvzXmLF3+hcXY7IgzIr/kBGgDAEnSpAcGhfZKSk9+TjksASsUVAKzdvIWLqwuD8iU1QiAAWJhKq08Pb9Zy7IOHDz+VjkUASsYVAKxdfkFBpemz5tRg7+OoEQIBwIICQ8OmR0U//KN0HAJQOq4AoAQFBQXvzF+0VK9xdj+jRggEAPN6LfyBmR4QHDo1OTnlQ+n4A2ALuAKAkixYvLSaMFifUGNiCACYi0YXH96s5bDoh4/w2BdsFlcAUJKCgkK772fPEUKg7gdh4M7jBnIAAOOkBIU2aP3gQfQn0vEGwJZwBQClYbODFy9e/ElIg0YjhcE7QVBsYFAHAHgjlfAH5FdVNT/51Qn2T0lNxVIvYPO4AoBS5eXnv9O1V7+GKo3+tDCg50sHeAAAQ9hMX8+A2jOGDh/51b1797ixBcAWcQUAJYtPSHy3ZZt2Vf5dpfp3wsCeIx3oAQB+pUhwrbqjvt3ZCxd/Jx1PAGwZVwBQuqysLLuXL1++H9ywkZ+bb8ABYYBPNTDwA0DFVSh4HhLeaMyyVav+kZKS8g729oWKhisA2JJjJ05+pnFy6ajW6C+q8VgYoKJ7rdLqE6rrnFf1GTDQRzpeAFQkXAHA1hw7ftxu9tz59t9oHccLF4CXBi4KAGD7ilUa3fm69ZvVO3Ls2B9TUlK4sQKgIuEKALaIzRROSk5+v//gwWq/oJBNKq0ukV0QDFwkAMCWaPQFDq5eN0PCGvU6d/7iX9PTMypJxweAiogrANi6R4+ffBhcv0GDL6va71Rj7UAAW8X+wHtSxd5h7pr1G7+SjgMAFR1XAKgIbt++bbd7375/fKV17C9cJO7952IhvYAAgCLpCtni8BHDhtc8cODgR9LffwBAAIQKLiEx8b2lK1b/b1D9hpOEC8cL9c+zAw1cUADAyrH9e7O+qqo5Fxga1jgxMenj7JwcPO4FeAOuAFBR9eoX4feNVr9WuIiw3UReG7jAAIB1KlJpdLdq1A6OGDBw0OePHz/mfr8B4L9xBYCKis0K3H/w4J9CGjYKV2l1F9R4LAxg/TT6ZLXWcd6ipctdL1++jC3cAEqJKwBUdKmpqZXOnD//ea36Yf0dXD3vsFmE3EUHAORULPxepn1VVXtw6KixrvEJCR+ymf7S32UAeDOuAAD/Z836DZVVTq7zVRrdU/Giw1+IAKBc6QpUWt2xJm3ad4gYOAjbtwGYiCsAwH/bc+TIxwOGDKut1jpu/nl2ofSCBADlQxfr6OYxavf+A18/fPIEj3sByoArAAAvKyur0qv4+N/VDKnf/KuqmksqjT5bjYkiAOWB3XmP13t4L163YZN9QkLC+9LfTwAwHlcAgDd7+vSpXZ/+A/7hFxg6RK3R3fnPxUl6wQKAsmN/YKUJdvcdODh0165dWNIFwIy4AgC83cWLV99duGS5h1rjtEi4QKUYuHgBQFlo9LeatGzbYfe+/f/IyMD2bQDmxhUAoHTYrMMXL199NHTUGK+qOuejao0uQ63V4bEwgOkKVRr9Y1ffmpOuXr/xz9TU1Helv3cAYB5cAQCMN3PW7N81a9W+q1qjP4llYwBMoXuldfNYOXTkJN3589dxxw/AwrgCAJjm8eOn7+zavU/l6OE5TriYxfEXOAAwgP3BdHj42PGNDx09+qn09woALIMrAEDZvHz16oO1P2zUObp5rFRrdIlqTBQBkGKvSuQJfyjd9woI7Nard58/ZGdnY1kXgHLEFQDAPDZt2lSpd7+IsMoapwPCxS79Pxc96YUQoMJRafUPaoXWnzxy9JivkpOTud8dALA8rgAA5pORkVlp+669XzRt1a6rcOGLlF4IASqYzMoa3cYVa9b5X7l27QPp7wsAlB+uAADml5yS8p63r++XLr7+01RaXYxaoysycHEEsEXsznf2N3qXsy6e3qErV636fWFhIfc7AgDliysAgOWcv3Kl0sBRo120Lp5r1Rp9goGLJYAN0bEJHldatu80eMrs2Z9Jfx8AQD5cAQAsb/+hI58NHzO+hXBxPKH+eRakgYsngKKleNYInLZ9125tTGzse9LfAQCQF1cAgPKRlZX1Tq/evf/s7hvQR6XVP1JrdflqTBQBZXut1uhSHN29dtQKDvG+fz/qQ+nPPQBYB64AAOUrJTXVbuCo0apadetNFy6ejw1cVAGUIFut0Z/uN3BI8+27d2OCB4CV4woAII8rV6/+dsXqtYHChXSbeDHlL7AAVkml1T1q27nroG3bd1XOy8vDLh4ACsAVAEA+hYVFdjt27vpD7ZDQRlV1LpeFi2uuGo+FwToVqbW6eFffGsuateilSk5JeV/68wwA1osrAIB1mDpr9h9btOs4UqXR3RQUGrgAA8glzdnbf8ugESNr3Lpz5zfSn10AsH5cAQCsx7Nnsb/ZvG2Hk2dArdnqn3cTkV6IAcqT8IeI7uJf/vFF11179/9Z+vMKAMrBFQDA+ty9/+BjD+/6AQ5uXvuFCzCCIJQrlbhUke6ld83aw6ZOm/bFw4cP3ysqKuJ+TgFAObgCAFivHXv2fNgnYlAb4YJ8Qbgw50gv1AAWEFenQaNFA4cNc8jNy+N+JgFAmbgCAFi3vPz8SkNHjvrmf76sPFKt1T01cMEGMIc84Q+Nw44tW4XcuHX7E+nPIQAoG1cAAOuXkZFh9/Dhow9at21XzcXb7wchCCYLF+xiAxdxAGPlV9O73nIPqNVx5959f4tJSOB+/gBA+bgCACjL7cjI9wcMGRbk4u2/U7h4Zxq4oAOURqFao49q07HLtDnzF/9F+nMGALaFKwCAMu05cOhvf/H17yNcyK+rxTXauAs8wJvkVtHqF3fv1cf75atX2MUDoALgCgCgTMXFxXZRz2J/893UqV96+Nccp9Lok1Tish3cxR7gZxpdlqOb12n3moH1ox8++iQlJYX7uQIA28QVAED58vPz7foNGuYSFNZwlRACX3IXfqjo8tVa3Y3+g4Z2PXDw8KfSnx8AsH1cAQBsx/Wbtz4LDApuoNLoT6o1bC03LghAxcK2FXzxlaPTd5O+n6GT/rwAQMXBFQDAtsTFxVXasWfv/7j51+hVTe8SpRYX9eWCAdg0XbFKq8t09vLd26l7D13048cfZefmcj8rAFBxcAUAsF0z5y34+xdfqeYKoeCxGhNFKgaNLverqvYHAkNCGz589Pi30p8JAKiYuAIA2C42UWTx0qUfdujTt2ZlB/0qNe4G2rJitVZ3r5pWN2T12nVfXL58mft5AICKiysAgO1LTEmxe/Dw4Weufn7Nta6el4SwkKv++f0waYgA5WF3dlPd/GrMnDlnbrWHDx++L/3+AwBwBQCoWA4ePvonB2e3fmqt7o4ay8Yo2WuVVpf4L2e3LR169/ORfp8BAH6NKwBAxbNz5067ydOnu1V2dJqt0uoTWJgwEDDAehVX1urOB4U3arF0564/v0pN5b7HAAC/xhUAoGLKzsmxi4qO/l37Lj09dB4+x4QgmKPWIAhaM7bQdzW962MX7xrDDx459mXs8+eVpN9XAABDuAIAwKMnTz6q17hZ6ypa/XGVVpcvDR4gM404wSO2ms5pyeIVK7+Wfv8AAN6GKwAAMPfv37dbv3HTl9Uc3MYKoeORGo+FrUWBSuO4pdeAiHqbNm/+SPp9AwAoDa4AAPBrUVHRv50xe57e2ct/qRA+0tXi8iJcKAHLeq3W6PO1rp53/OoEt78XFfWn5JQUPO4FAJNxBQCAN+nUvVeQyt5hrxBIUsVQwgcVMD+2i8ddz1p1Rp48/dPn0u8JAIApuAIAwJskJibarVqz9vPQRk06qrW6q2qEQItSafVJKq3jsumz53gfO3v2Hen3AwDAVFwBAOBtYuPi3j145Kja3tn9W5W9Y5xag23lzEajf63S6PMq2zv+1KN/RODd+/c/zcvL474HAABlwRUAAEprz549dh06da1mr3NZJ4SXl2rcESwbjS5fba8/W69Ri+6dOnXGBA8AsBiuAABgrE2bN3/Sa8DApiqtfh9bm44LNvB2Gn2s3sN30qo1P3xz//5DPO4FAIviCgAApkhOSXkn8u69z71qBvWubO/4+D9BEHcES8a+PhnV9a4bFy5Z5hn14OGH0q8rAIAlcAUAgLKIiYmxa96y1T89a9b+VqXVPfxPyJEGn4rutYotqaNxPNaha496W7ZswZIuAFCuuAIAgDkcP3XqvWmz5tQUws4PgjQDIajCUmn0Nxs2b9171Zo1X2RkZHBfOwAAS+MKAADmwmav3o68+6ce/QY0qKJ1uq7W6AvUFfWOoEZfrNLoEuxd3OeePH3mm7i45+9Jv14AAOWFKwAAWMLo0WM+qdeo6SCVVndNCEQsCPIhyTYJgVeXqHXx2NCtVx/9hQsX8LgXAGTHFQAALOV+VNS7y1avcXDy9p0pBKN4A2HJ1uSrtPrjEUNHtN28ffvvpV8PAAC5cAUAAEu7FxX1u/mLlwVWdXRhy8Zkq23rsTD7XIqEz+tFUP3wiFt3Iv8nNTXtXenXAABATlwBAKC8LN248d3Wnbo2U2t15wRZBsKUAuke+wUFz2rfv/+Xqenp3OcMAGANuAIAQHnKzMystGzVqq8btmg1VKXRPeADlUJo9Blqe8ftcxYsrP3TuXMfSD9PAABrwhUAAOTwLDbuA61O71BN77ZGCFPpao1OCY+FXwvnWajWOt36UlW11dx58/9aWFjIfW4AANaGKwAAyOnChavvdO7a10fr4rlTrdUliSGLD15WQJev0uhuhDVpMXLs2GmfSD8PAABrxhUAAKzBxq07/jBg6PD2Kq3jfiFw5fABTDYskD71rBk4acnyVQ6PnjzFen4AoDhcAQDAWqSkpr57/eatv9eqGx5eTe96Qq3R56i0+iIDoczS2NZthVUcnJ5Vd3Ift3z1Oqf7Dx5g314AUCyuAABgjS5fvvZex669ndp07jZNCGSXVVpdvKXDoEq886i7H1AndFuH7r06Tpg4HY96AcAmcAUAAGuWm5tbacnylV8uXr6ikVfNWhPVGv0RQazAPGFQo2fL0VwWgt/KoaPH9hGO43bh4uWPpOcBAKBkXAEAQCnuRUW9f+3GzS8EmrrhzepVd3KdWM3JbYvgVlWdS7pKq8sXwhxTIO5DLO5FrGPb0LH/zK/i4JRd3cktVvj3J6s5uc6trnfruvaHjV5Cf19fu3Hjs/T09HekxwQAsAVcAQDAFly/c6dSmx49/tCxe88qHbv1dOzQtacH07FbD5eO3XvZd+ze/V/jZ836jfTjAAAqAq4AAAAAALaNKwAAAACAbeMKAAAAAGDbuAIAAAAA2DauAAAAAAC2jSsAAAAAgG3jCgAAAABg27gCAAAAANg2rgAAAAAAto0rAAAAAIBt4woA8P82ikfxKB7Fo3gUD28MABn+2DLnewm6AAAAAElFTkSuQmCC;" vertex="1" parent="1">
          <mxGeometry x="363.76" y="550" width="106.49" height="60" as="geometry" />
        </mxCell>
        <mxCell id="BTvp2O8rXc9mUWwI-0S5-229" style="edgeStyle=orthogonalEdgeStyle;rounded=0;orthogonalLoop=1;jettySize=auto;html=1;exitX=1;exitY=0.5;exitDx=0;exitDy=0;entryX=0;entryY=0.5;entryDx=0;entryDy=0;entryPerimeter=0;" edge="1" parent="1" source="BTvp2O8rXc9mUWwI-0S5-227" target="BTvp2O8rXc9mUWwI-0S5-209">
          <mxGeometry relative="1" as="geometry" />
        </mxCell>
        <mxCell id="BTvp2O8rXc9mUWwI-0S5-230" style="edgeStyle=orthogonalEdgeStyle;rounded=0;orthogonalLoop=1;jettySize=auto;html=1;exitX=1;exitY=0.5;exitDx=0;exitDy=0;entryX=0;entryY=0.5;entryDx=0;entryDy=0;entryPerimeter=0;" edge="1" parent="1" source="BTvp2O8rXc9mUWwI-0S5-227" target="BTvp2O8rXc9mUWwI-0S5-225">
          <mxGeometry relative="1" as="geometry" />
        </mxCell>
        <mxCell id="BTvp2O8rXc9mUWwI-0S5-231" style="edgeStyle=orthogonalEdgeStyle;rounded=0;orthogonalLoop=1;jettySize=auto;html=1;exitX=1;exitY=0.5;exitDx=0;exitDy=0;entryX=0;entryY=0.5;entryDx=0;entryDy=0;entryPerimeter=0;" edge="1" parent="1" source="BTvp2O8rXc9mUWwI-0S5-227" target="BTvp2O8rXc9mUWwI-0S5-226">
          <mxGeometry relative="1" as="geometry" />
        </mxCell>
        <mxCell id="BTvp2O8rXc9mUWwI-0S5-232" style="edgeStyle=orthogonalEdgeStyle;rounded=0;orthogonalLoop=1;jettySize=auto;html=1;exitX=1;exitY=0.51;exitDx=0;exitDy=0;exitPerimeter=0;entryX=0.5;entryY=1;entryDx=0;entryDy=0;entryPerimeter=0;" edge="1" parent="1" source="BTvp2O8rXc9mUWwI-0S5-226" target="BTvp2O8rXc9mUWwI-0S5-183">
          <mxGeometry relative="1" as="geometry">
            <Array as="points">
              <mxPoint x="580" y="608" />
              <mxPoint x="580" y="650" />
              <mxPoint x="195" y="650" />
            </Array>
          </mxGeometry>
        </mxCell>
        <mxCell id="BTvp2O8rXc9mUWwI-0S5-236" style="edgeStyle=orthogonalEdgeStyle;rounded=0;orthogonalLoop=1;jettySize=auto;html=1;exitX=1;exitY=0.51;exitDx=0;exitDy=0;exitPerimeter=0;entryX=0.005;entryY=0.63;entryDx=0;entryDy=0;entryPerimeter=0;" edge="1" parent="1" source="BTvp2O8rXc9mUWwI-0S5-225" target="BTvp2O8rXc9mUWwI-0S5-184">
          <mxGeometry relative="1" as="geometry">
            <Array as="points">
              <mxPoint x="580" y="578" />
              <mxPoint x="580" y="650" />
              <mxPoint x="150" y="650" />
              <mxPoint x="150" y="442" />
            </Array>
          </mxGeometry>
        </mxCell>
        <mxCell id="BTvp2O8rXc9mUWwI-0S5-238" style="edgeStyle=orthogonalEdgeStyle;rounded=0;orthogonalLoop=1;jettySize=auto;html=1;exitX=1;exitY=0.51;exitDx=0;exitDy=0;exitPerimeter=0;entryX=0.005;entryY=0.63;entryDx=0;entryDy=0;entryPerimeter=0;" edge="1" parent="1" source="BTvp2O8rXc9mUWwI-0S5-209" target="BTvp2O8rXc9mUWwI-0S5-185">
          <mxGeometry relative="1" as="geometry">
            <Array as="points">
              <mxPoint x="580" y="551" />
              <mxPoint x="580" y="650" />
              <mxPoint x="150" y="650" />
              <mxPoint x="150" y="374" />
            </Array>
          </mxGeometry>
        </mxCell>
        <mxCell id="BTvp2O8rXc9mUWwI-0S5-239" value="kafka" style="rounded=0;whiteSpace=wrap;html=1;" vertex="1" parent="1">
          <mxGeometry x="367" y="610" width="101" height="27.5" as="geometry" />
        </mxCell>
        <mxCell id="BTvp2O8rXc9mUWwI-0S5-244" value="" style="image;sketch=0;aspect=fixed;html=1;points=[];align=center;fontSize=12;image=img/lib/mscae/Cache_Redis_Product.svg;" vertex="1" parent="1">
          <mxGeometry x="299.5" y="250" width="50" height="42" as="geometry" />
        </mxCell>
        <mxCell id="BTvp2O8rXc9mUWwI-0S5-245" value="LoginSession" style="rounded=0;whiteSpace=wrap;html=1;" vertex="1" parent="1">
          <mxGeometry x="282.25" y="210" width="80" height="30" as="geometry" />
        </mxCell>
      </root>
    </mxGraphModel>
  </diagram>
</mxfile>
